# xmcd
#
# Track frame offsets:
#	150
#	10662
#	28151
#	43141
#	59496
#	71737
#	85274
#	99034
#	114173
#	134487
#	151014
#
# Disc length: 2191 seconds
#
# Revision: 2
# Processed by: cddbd v1.5.2PL0 Copyright (c) Steve Scherf et al.
# Submitted via: audiograbber 1.83.01
#
DISCID=85088d0b
DTITLE=Sleigh Bells - Reign of Terror
DYEAR=2012
DGENRE=Indie
TTITLE0=True Shred Guitar
TTITLE1=Born to Lose
TTITLE2=Crush
TTITLE3=End of the Line
TTITLE4=Leader of the Pack
TTITLE5=Comeback Kid
TTITLE6=Demons
TTITLE7=Road to Hell
TTITLE8=You Lost Me
TTITLE9=Never Say Die
TTITLE10=D.O.A.
EXTD=
EXTT0=\n
EXTT1=
EXTT2=
EXTT3=
EXTT4=
EXTT5=
EXTT6=
EXTT7=
EXTT8=
EXTT9=
EXTT10=
PLAYORDER=
